<mxfile host="app.diagrams.net" modified="2021-09-24T01:51:08.070Z" agent="5.0 (Windows NT 10.0; Win64; x64) AppleWebKit/537.36 (KHTML, like Gecko) Chrome/93.0.4577.82 Safari/537.36" etag="69zttpiJD7U5t7Q4hhsw" version="15.2.9" type="github">
  <diagram id="T_a1oug3ayv9lMTgndES" name="Page-1">
    <mxGraphModel dx="1449" dy="562" grid="1" gridSize="10" guides="1" tooltips="1" connect="1" arrows="1" fold="1" page="1" pageScale="1" pageWidth="850" pageHeight="1100" math="0" shadow="0">
      <root>
        <mxCell id="0" />
        <mxCell id="1" parent="0" />
        <mxCell id="RlQxN93S1A6WH-zx1hDd-1" value="" style="rounded=1;whiteSpace=wrap;html=1;" vertex="1" parent="1">
          <mxGeometry x="130" y="190" width="550" height="320" as="geometry" />
        </mxCell>
        <mxCell id="RlQxN93S1A6WH-zx1hDd-2" value="CONTAINER" style="rounded=1;whiteSpace=wrap;html=1;" vertex="1" parent="1">
          <mxGeometry x="275" y="310" width="260" height="120" as="geometry" />
        </mxCell>
        <mxCell id="RlQxN93S1A6WH-zx1hDd-3" value="OS" style="text;html=1;strokeColor=none;fillColor=none;align=center;verticalAlign=middle;whiteSpace=wrap;rounded=0;" vertex="1" parent="1">
          <mxGeometry x="130" y="150" width="40" height="20" as="geometry" />
        </mxCell>
      </root>
    </mxGraphModel>
  </diagram>
</mxfile>
